<svg width="22" height="22" viewBox="0 0 22 22" fill="none" xmlns="http://www.w3.org/2000/svg">
<path d="M11.1429 7.96908C9.47452 7.96908 8.11298 9.33062 8.11298 10.999C8.11298 12.6674 9.47452 14.0289 11.1429 14.0289C12.8113 14.0289 14.1728 12.6674 14.1728 10.999C14.1728 9.33062 12.8113 7.96908 11.1429 7.96908ZM20.2304 10.999C20.2304 9.74431 20.2418 8.50097 20.1713 7.24853C20.1009 5.7938 19.769 4.50273 18.7052 3.43896C17.6392 2.37291 16.3504 2.04332 14.8957 1.97286C13.641 1.9024 12.3976 1.91376 11.1452 1.91376C9.89048 1.91376 8.64714 1.9024 7.39471 1.97286C5.93998 2.04332 4.6489 2.37518 3.58513 3.43896C2.51908 4.505 2.1895 5.7938 2.11903 7.24853C2.04857 8.50324 2.05993 9.74658 2.05993 10.999C2.05993 12.2514 2.04857 13.4971 2.11903 14.7495C2.1895 16.2042 2.52136 17.4953 3.58513 18.5591C4.65117 19.6251 5.93998 19.9547 7.39471 20.0252C8.64941 20.0956 9.89275 20.0843 11.1452 20.0843C12.3999 20.0843 13.6432 20.0956 14.8957 20.0252C16.3504 19.9547 17.6415 19.6228 18.7052 18.5591C19.7713 17.493 20.1009 16.2042 20.1713 14.7495C20.2441 13.4971 20.2304 12.2537 20.2304 10.999ZM11.1429 15.661C8.56304 15.661 6.48095 13.5789 6.48095 10.999C6.48095 8.41914 8.56304 6.33705 11.1429 6.33705C13.7228 6.33705 15.8049 8.41914 15.8049 10.999C15.8049 13.5789 13.7228 15.661 11.1429 15.661ZM15.9958 7.2349C15.3935 7.2349 14.907 6.74847 14.907 6.14612C14.907 5.54377 15.3935 5.05735 15.9958 5.05735C16.5982 5.05735 17.0846 5.54377 17.0846 6.14612C17.0848 6.28915 17.0567 6.43081 17.0021 6.56299C16.9474 6.69517 16.8672 6.81526 16.7661 6.9164C16.665 7.01754 16.5449 7.09773 16.4127 7.15238C16.2805 7.20704 16.1388 7.23508 15.9958 7.2349Z" fill="white"/>
</svg>
